<svg width="450" height="50" viewBox="0 0 450 50" fill="none" xmlns="http://www.w3.org/2000/svg">
<rect width="50" height="50" rx="25" fill="white"/>
<path d="M14.5 25L16.5 27" stroke="#9AC31C" stroke-width="0.8" stroke-linejoin="round"/>
<path d="M15.6095 27.6089C15.7539 27.3229 16.9088 26.3218 16.9088 26.3218C17.3406 25.8927 17.7737 25.8928 18.2068 26.3218C18.5532 26.665 18.6399 27.1795 18.2068 27.6089L17.3406 28.4669C16.9075 28.8956 16.5687 29.1566 16.0426 28.8959C15.3497 28.5527 15.4651 27.8949 15.6095 27.6089Z" stroke="#9AC31C" stroke-width="0.8" stroke-linejoin="round"/>
<path d="M18.6095 30.6089C18.7539 30.3229 19.9088 29.3218 19.9088 29.3218C20.3406 28.8927 20.7737 28.8928 21.2068 29.3218C21.5532 29.665 21.6399 30.1795 21.2068 30.6089L20.3406 31.4669C19.9075 31.8956 19.5687 32.1566 19.0426 31.8959C18.3497 31.5527 18.4651 30.8949 18.6095 30.6089Z" stroke="#9AC31C" stroke-width="0.8" stroke-linejoin="round"/>
<path d="M20.6095 31.6089C20.7539 31.3229 21.9088 30.3218 21.9088 30.3218C22.3406 29.8927 22.7737 29.8928 23.2068 30.3218C23.5532 30.665 23.6399 31.1795 23.2068 31.6089L22.3406 32.4669C21.9075 32.8956 21.5687 33.1566 21.0426 32.8959C20.3497 32.5527 20.4651 31.8949 20.6095 31.6089Z" stroke="#9AC31C" stroke-width="0.8" stroke-linejoin="round"/>
<path d="M16.646 29.1452C16.8385 28.7638 18.3783 27.4291 18.3783 27.4291C18.9541 26.8569 19.5316 26.8571 20.109 27.4291C20.571 27.8867 20.6865 28.5727 20.109 29.1452L18.9541 30.2892C18.3767 30.8608 17.9249 31.2088 17.2234 30.8613C16.2996 30.4035 16.4535 29.5265 16.646 29.1452Z" stroke="#9AC31C" stroke-width="0.8" stroke-linejoin="round"/>
<path d="M17.7219 17.6672C17.5381 17.5446 17.2897 17.5943 17.1672 17.7781C17.0446 17.9619 17.0943 18.2103 17.2781 18.3328L17.7219 17.6672ZM19 19L19.3145 19.2471C19.3834 19.1595 19.4126 19.047 19.395 18.9369C19.3774 18.8268 19.3147 18.729 19.2219 18.6672L19 19ZM13.5 26L13.2781 26.3328C13.4519 26.4487 13.6855 26.4113 13.8145 26.2471L13.5 26ZM12.2219 24.6672C12.0381 24.5446 11.7897 24.5943 11.6672 24.7781C11.5446 24.9619 11.5943 25.2103 11.7781 25.3328L12.2219 24.6672ZM17.2781 18.3328L18.7781 19.3328L19.2219 18.6672L17.7219 17.6672L17.2781 18.3328ZM18.6855 18.7529L13.1855 25.7529L13.8145 26.2471L19.3145 19.2471L18.6855 18.7529ZM13.7219 25.6672L12.2219 24.6672L11.7781 25.3328L13.2781 26.3328L13.7219 25.6672Z" fill="#9AC31C"/>
<path d="M32.2439 27.1927C32.0742 27.3341 32.0513 27.5864 32.1927 27.7561C32.3341 27.9258 32.5864 27.9487 32.7561 27.8073L32.2439 27.1927ZM32.7561 27.8073L35.7561 25.3073L35.2439 24.6927L32.2439 27.1927L32.7561 27.8073Z" fill="#9AC31C"/>
<path d="M28 24.1C27.7791 24.1 27.6 24.2791 27.6 24.5C27.6 24.7209 27.7791 24.9 28 24.9V24.1ZM30.6789 24.3578C30.8765 24.259 30.9566 24.0187 30.8578 23.8211C30.759 23.6235 30.5187 23.5434 30.3211 23.6422L30.6789 24.3578ZM28 24.9C28.6892 24.9 29.7964 24.799 30.6789 24.3578L30.3211 23.6422C29.6036 24.001 28.6441 24.1 28 24.1V24.9Z" fill="#9AC31C"/>
<path d="M32.7219 18.3328C32.9057 18.2103 32.9554 17.9619 32.8328 17.7781C32.7103 17.5943 32.4619 17.5446 32.2781 17.6672L32.7219 18.3328ZM31 19L30.7781 18.6672C30.6853 18.729 30.6226 18.8268 30.605 18.9369C30.5874 19.047 30.6166 19.1595 30.6855 19.2471L31 19ZM36.5 26L36.1855 26.2471C36.3145 26.4113 36.5481 26.4487 36.7219 26.3328L36.5 26ZM38.2219 25.3328C38.4057 25.2103 38.4554 24.9619 38.3328 24.7781C38.2103 24.5943 37.9619 24.5446 37.7781 24.6672L38.2219 25.3328ZM32.2781 17.6672L30.7781 18.6672L31.2219 19.3328L32.7219 18.3328L32.2781 17.6672ZM30.6855 19.2471L36.1855 26.2471L36.8145 25.7529L31.3145 18.7529L30.6855 19.2471ZM36.7219 26.3328L38.2219 25.3328L37.7781 24.6672L36.2781 25.6672L36.7219 26.3328Z" fill="#9AC31C"/>
<path d="M22 20.5H19.5L18.5 20" stroke="#9AC31C" stroke-width="0.8"/>
<path d="M30 20.5L29.8901 20.8846L30.068 20.9354L30.2219 20.8328L30 20.5ZM23 19.5V19.1C22.8939 19.1 22.7922 19.1421 22.7172 19.2172L23 19.5ZM24 22L24.2219 21.6672C24.0452 21.5494 23.8074 21.5902 23.68 21.76L24 22ZM31.5 27L31.7219 26.6672L31.5 27ZM27.2219 26.1672C27.0381 26.0446 26.7897 26.0943 26.6672 26.2781C26.5446 26.4619 26.5943 26.7103 26.7781 26.8328L27.2219 26.1672ZM31.2304 31.1098L30.9475 30.8269L30.9475 30.8269L31.2304 31.1098ZM29.7304 31.1098L29.9093 30.752L29.9093 30.752L29.7304 31.1098ZM26.0192 27.9443C25.8354 27.8217 25.587 27.8714 25.4645 28.0552C25.3419 28.239 25.3916 28.4874 25.5754 28.6099L26.0192 27.9443ZM29.5 32.5L29.2172 32.2172L29.2172 32.2172L29.5 32.5ZM28 32.5L28.1789 32.1422L28.1789 32.1422L28 32.5ZM24.2219 29.1672C24.0381 29.0446 23.7897 29.0943 23.6672 29.2781C23.5446 29.4619 23.5943 29.7103 23.7781 29.8328L24.2219 29.1672ZM26.4733 32.8516L26.1905 32.5688L26.1905 32.5688L26.4733 32.8516ZM24.9733 32.8516L25.2119 32.5305L25.2057 32.526L25.1994 32.5216L24.9733 32.8516ZM31.2781 19.1672L29.7781 20.1672L30.2219 20.8328L31.7219 19.8328L31.2781 19.1672ZM30.1099 20.1154C29.5245 19.9481 28.6211 19.6972 27.8128 19.4878C27.409 19.3832 27.026 19.2882 26.717 19.219C26.5628 19.1845 26.4238 19.1557 26.3083 19.1354C26.2012 19.1165 26.0886 19.1 26 19.1V19.9C25.9993 19.9 26.0031 19.9 26.0124 19.9007C26.0214 19.9014 26.0334 19.9026 26.0489 19.9045C26.08 19.9084 26.1201 19.9145 26.1694 19.9232C26.2681 19.9406 26.394 19.9665 26.5423 19.9997C26.8386 20.066 27.2118 20.1585 27.6122 20.2622C28.4122 20.4695 29.3088 20.7185 29.8901 20.8846L30.1099 20.1154ZM26 19.1C25.9992 19.1 25.9984 19.1 25.9976 19.1C25.9968 19.1 25.9961 19.1 25.9953 19.1C25.9944 19.1 25.9936 19.1 25.9928 19.1C25.992 19.1 25.9912 19.1 25.9904 19.1C25.9896 19.1 25.9887 19.1 25.9879 19.1C25.9871 19.1 25.9862 19.1 25.9854 19.1C25.9845 19.1 25.9837 19.1 25.9828 19.1C25.982 19.1 25.9811 19.1 25.9803 19.1C25.9794 19.1 25.9785 19.1 25.9777 19.1C25.9768 19.1 25.9759 19.1 25.975 19.1C25.9741 19.1 25.9732 19.1 25.9723 19.1C25.9715 19.1 25.9706 19.1 25.9697 19.1C25.9687 19.1 25.9678 19.1 25.9669 19.1C25.966 19.1 25.9651 19.1 25.9642 19.1C25.9632 19.1 25.9623 19.1 25.9614 19.1C25.9604 19.1 25.9595 19.1 25.9586 19.1C25.9576 19.1 25.9567 19.1 25.9557 19.1C25.9548 19.1 25.9538 19.1 25.9528 19.1C25.9519 19.1 25.9509 19.1 25.9499 19.1C25.949 19.1 25.948 19.1 25.947 19.1C25.946 19.1 25.945 19.1 25.944 19.1C25.943 19.1 25.9421 19.1 25.9411 19.1C25.94 19.1 25.939 19.1 25.938 19.1C25.937 19.1 25.936 19.1 25.935 19.1C25.934 19.1 25.9329 19.1 25.9319 19.1C25.9309 19.1 25.9298 19.1 25.9288 19.1C25.9278 19.1 25.9267 19.1 25.9257 19.1C25.9246 19.1 25.9235 19.1 25.9225 19.1C25.9214 19.1 25.9204 19.1 25.9193 19.1C25.9182 19.1 25.9172 19.1 25.9161 19.1C25.915 19.1 25.9139 19.1 25.9128 19.1C25.9117 19.1 25.9106 19.1 25.9095 19.1C25.9084 19.1 25.9073 19.1 25.9062 19.1C25.9051 19.1 25.904 19.1 25.9029 19.1C25.9018 19.1 25.9007 19.1 25.8995 19.1C25.8984 19.1 25.8973 19.1 25.8962 19.1C25.895 19.1 25.8939 19.1 25.8927 19.1C25.8916 19.1 25.8904 19.1 25.8893 19.1C25.8881 19.1 25.887 19.1 25.8858 19.1C25.8847 19.1 25.8835 19.1 25.8823 19.1C25.8812 19.1 25.88 19.1 25.8788 19.1C25.8776 19.1 25.8764 19.1 25.8752 19.1C25.8741 19.1 25.8729 19.1 25.8717 19.1C25.8705 19.1 25.8693 19.1 25.8681 19.1C25.8668 19.1 25.8656 19.1 25.8644 19.1C25.8632 19.1 25.862 19.1 25.8608 19.1C25.8595 19.1 25.8583 19.1 25.8571 19.1C25.8558 19.1 25.8546 19.1 25.8534 19.1C25.8521 19.1 25.8509 19.1 25.8496 19.1C25.8484 19.1 25.8471 19.1 25.8459 19.1C25.8446 19.1 25.8433 19.1 25.8421 19.1C25.8408 19.1 25.8395 19.1 25.8382 19.1C25.837 19.1 25.8357 19.1 25.8344 19.1C25.8331 19.1 25.8318 19.1 25.8305 19.1C25.8292 19.1 25.8279 19.1 25.8266 19.1C25.8253 19.1 25.824 19.1 25.8227 19.1C25.8214 19.1 25.8201 19.1 25.8188 19.1C25.8174 19.1 25.8161 19.1 25.8148 19.1C25.8135 19.1 25.8121 19.1 25.8108 19.1C25.8095 19.1 25.8081 19.1 25.8068 19.1C25.8054 19.1 25.8041 19.1 25.8027 19.1C25.8014 19.1 25.8 19.1 25.7987 19.1C25.7973 19.1 25.7959 19.1 25.7946 19.1C25.7932 19.1 25.7918 19.1 25.7904 19.1C25.7891 19.1 25.7877 19.1 25.7863 19.1C25.7849 19.1 25.7835 19.1 25.7821 19.1C25.7807 19.1 25.7793 19.1 25.7779 19.1C25.7765 19.1 25.7751 19.1 25.7737 19.1C25.7723 19.1 25.7709 19.1 25.7694 19.1C25.768 19.1 25.7666 19.1 25.7652 19.1C25.7638 19.1 25.7623 19.1 25.7609 19.1C25.7594 19.1 25.758 19.1 25.7566 19.1C25.7551 19.1 25.7537 19.1 25.7522 19.1C25.7508 19.1 25.7493 19.1 25.7479 19.1C25.7464 19.1 25.7449 19.1 25.7435 19.1C25.742 19.1 25.7405 19.1 25.7391 19.1C25.7376 19.1 25.7361 19.1 25.7346 19.1C25.7331 19.1 25.7317 19.1 25.7302 19.1C25.7287 19.1 25.7272 19.1 25.7257 19.1C25.7242 19.1 25.7227 19.1 25.7212 19.1C25.7197 19.1 25.7182 19.1 25.7166 19.1C25.7151 19.1 25.7136 19.1 25.7121 19.1C25.7106 19.1 25.709 19.1 25.7075 19.1C25.706 19.1 25.7045 19.1 25.7029 19.1C25.7014 19.1 25.6998 19.1 25.6983 19.1C25.6968 19.1 25.6952 19.1 25.6937 19.1C25.6921 19.1 25.6906 19.1 25.689 19.1C25.6874 19.1 25.6859 19.1 25.6843 19.1C25.6827 19.1 25.6812 19.1 25.6796 19.1C25.678 19.1 25.6764 19.1 25.6749 19.1C25.6733 19.1 25.6717 19.1 25.6701 19.1C25.6685 19.1 25.6669 19.1 25.6653 19.1C25.6637 19.1 25.6621 19.1 25.6605 19.1C25.6589 19.1 25.6573 19.1 25.6557 19.1C25.6541 19.1 25.6525 19.1 25.6509 19.1C25.6493 19.1 25.6476 19.1 25.646 19.1C25.6444 19.1 25.6428 19.1 25.6411 19.1C25.6395 19.1 25.6379 19.1 25.6362 19.1C25.6346 19.1 25.633 19.1 25.6313 19.1C25.6297 19.1 25.628 19.1 25.6264 19.1C25.6247 19.1 25.6231 19.1 25.6214 19.1C25.6197 19.1 25.6181 19.1 25.6164 19.1C25.6147 19.1 25.6131 19.1 25.6114 19.1C25.6097 19.1 25.608 19.1 25.6064 19.1C25.6047 19.1 25.603 19.1 25.6013 19.1C25.5996 19.1 25.5979 19.1 25.5962 19.1C25.5945 19.1 25.5928 19.1 25.5911 19.1C25.5894 19.1 25.5877 19.1 25.586 19.1C25.5843 19.1 25.5826 19.1 25.5809 19.1C25.5792 19.1 25.5775 19.1 25.5757 19.1C25.574 19.1 25.5723 19.1 25.5706 19.1C25.5688 19.1 25.5671 19.1 25.5654 19.1C25.5636 19.1 25.5619 19.1 25.5602 19.1C25.5584 19.1 25.5567 19.1 25.5549 19.1C25.5532 19.1 25.5514 19.1 25.5497 19.1C25.5479 19.1 25.5462 19.1 25.5444 19.1C25.5427 19.1 25.5409 19.1 25.5391 19.1C25.5374 19.1 25.5356 19.1 25.5338 19.1C25.532 19.1 25.5303 19.1 25.5285 19.1C25.5267 19.1 25.5249 19.1 25.5231 19.1C25.5214 19.1 25.5196 19.1 25.5178 19.1C25.516 19.1 25.5142 19.1 25.5124 19.1C25.5106 19.1 25.5088 19.1 25.507 19.1C25.5052 19.1 25.5034 19.1 25.5016 19.1C25.4998 19.1 25.4979 19.1 25.4961 19.1C25.4943 19.1 25.4925 19.1 25.4907 19.1C25.4888 19.1 25.487 19.1 25.4852 19.1C25.4834 19.1 25.4815 19.1 25.4797 19.1C25.4779 19.1 25.476 19.1 25.4742 19.1C25.4723 19.1 25.4705 19.1 25.4686 19.1C25.4668 19.1 25.4649 19.1 25.4631 19.1C25.4612 19.1 25.4594 19.1 25.4575 19.1C25.4557 19.1 25.4538 19.1 25.4519 19.1C25.4501 19.1 25.4482 19.1 25.4463 19.1C25.4445 19.1 25.4426 19.1 25.4407 19.1C25.4388 19.1 25.437 19.1 25.4351 19.1C25.4332 19.1 25.4313 19.1 25.4294 19.1C25.4275 19.1 25.4256 19.1 25.4237 19.1C25.4219 19.1 25.42 19.1 25.4181 19.1C25.4162 19.1 25.4143 19.1 25.4123 19.1C25.4104 19.1 25.4085 19.1 25.4066 19.1C25.4047 19.1 25.4028 19.1 25.4009 19.1C25.399 19.1 25.397 19.1 25.3951 19.1C25.3932 19.1 25.3913 19.1 25.3894 19.1C25.3874 19.1 25.3855 19.1 25.3836 19.1C25.3816 19.1 25.3797 19.1 25.3778 19.1C25.3758 19.1 25.3739 19.1 25.3719 19.1C25.37 19.1 25.368 19.1 25.3661 19.1C25.3641 19.1 25.3622 19.1 25.3602 19.1C25.3583 19.1 25.3563 19.1 25.3544 19.1C25.3524 19.1 25.3504 19.1 25.3485 19.1C25.3465 19.1 25.3445 19.1 25.3426 19.1C25.3406 19.1 25.3386 19.1 25.3367 19.1C25.3347 19.1 25.3327 19.1 25.3307 19.1C25.3287 19.1 25.3268 19.1 25.3248 19.1C25.3228 19.1 25.3208 19.1 25.3188 19.1C25.3168 19.1 25.3148 19.1 25.3128 19.1C25.3108 19.1 25.3088 19.1 25.3068 19.1C25.3048 19.1 25.3028 19.1 25.3008 19.1C25.2988 19.1 25.2968 19.1 25.2948 19.1C25.2928 19.1 25.2908 19.1 25.2888 19.1C25.2867 19.1 25.2847 19.1 25.2827 19.1C25.2807 19.1 25.2787 19.1 25.2766 19.1C25.2746 19.1 25.2726 19.1 25.2706 19.1C25.2685 19.1 25.2665 19.1 25.2645 19.1C25.2624 19.1 25.2604 19.1 25.2583 19.1C25.2563 19.1 25.2543 19.1 25.2522 19.1C25.2502 19.1 25.2481 19.1 25.2461 19.1C25.244 19.1 25.242 19.1 25.2399 19.1C25.2379 19.1 25.2358 19.1 25.2337 19.1C25.2317 19.1 25.2296 19.1 25.2276 19.1C25.2255 19.1 25.2234 19.1 25.2214 19.1C25.2193 19.1 25.2172 19.1 25.2152 19.1C25.2131 19.1 25.211 19.1 25.2089 19.1C25.2069 19.1 25.2048 19.1 25.2027 19.1C25.2006 19.1 25.1985 19.1 25.1965 19.1C25.1944 19.1 25.1923 19.1 25.1902 19.1C25.1881 19.1 25.186 19.1 25.1839 19.1C25.1818 19.1 25.1797 19.1 25.1776 19.1C25.1755 19.1 25.1734 19.1 25.1713 19.1C25.1692 19.1 25.1671 19.1 25.165 19.1C25.1629 19.1 25.1608 19.1 25.1587 19.1C25.1566 19.1 25.1545 19.1 25.1523 19.1C25.1502 19.1 25.1481 19.1 25.146 19.1C25.1439 19.1 25.1417 19.1 25.1396 19.1C25.1375 19.1 25.1354 19.1 25.1332 19.1C25.1311 19.1 25.129 19.1 25.1269 19.1C25.1247 19.1 25.1226 19.1 25.1205 19.1C25.1183 19.1 25.1162 19.1 25.114 19.1C25.1119 19.1 25.1098 19.1 25.1076 19.1C25.1055 19.1 25.1033 19.1 25.1012 19.1C25.099 19.1 25.0969 19.1 25.0947 19.1C25.0926 19.1 25.0904 19.1 25.0883 19.1C25.0861 19.1 25.084 19.1 25.0818 19.1C25.0796 19.1 25.0775 19.1 25.0753 19.1C25.0731 19.1 25.071 19.1 25.0688 19.1C25.0667 19.1 25.0645 19.1 25.0623 19.1C25.0601 19.1 25.058 19.1 25.0558 19.1C25.0536 19.1 25.0514 19.1 25.0493 19.1C25.0471 19.1 25.0449 19.1 25.0427 19.1C25.0405 19.1 25.0384 19.1 25.0362 19.1C25.034 19.1 25.0318 19.1 25.0296 19.1C25.0274 19.1 25.0252 19.1 25.0231 19.1C25.0209 19.1 25.0187 19.1 25.0165 19.1C25.0143 19.1 25.0121 19.1 25.0099 19.1C25.0077 19.1 25.0055 19.1 25.0033 19.1C25.0011 19.1 24.9989 19.1 24.9967 19.1C24.9945 19.1 24.9923 19.1 24.99 19.1C24.9878 19.1 24.9856 19.1 24.9834 19.1C24.9812 19.1 24.979 19.1 24.9768 19.1C24.9746 19.1 24.9723 19.1 24.9701 19.1C24.9679 19.1 24.9657 19.1 24.9635 19.1C24.9612 19.1 24.959 19.1 24.9568 19.1C24.9546 19.1 24.9523 19.1 24.9501 19.1C24.9479 19.1 24.9457 19.1 24.9434 19.1C24.9412 19.1 24.939 19.1 24.9367 19.1C24.9345 19.1 24.9323 19.1 24.93 19.1C24.9278 19.1 24.9256 19.1 24.9233 19.1C24.9211 19.1 24.9188 19.1 24.9166 19.1C24.9143 19.1 24.9121 19.1 24.9099 19.1C24.9076 19.1 24.9054 19.1 24.9031 19.1C24.9009 19.1 24.8986 19.1 24.8964 19.1C24.8941 19.1 24.8919 19.1 24.8896 19.1C24.8873 19.1 24.8851 19.1 24.8828 19.1C24.8806 19.1 24.8783 19.1 24.8761 19.1C24.8738 19.1 24.8715 19.1 24.8693 19.1C24.867 19.1 24.8648 19.1 24.8625 19.1C24.8602 19.1 24.858 19.1 24.8557 19.1C24.8534 19.1 24.8512 19.1 24.8489 19.1C24.8466 19.1 24.8443 19.1 24.8421 19.1C24.8398 19.1 24.8375 19.1 24.8352 19.1C24.833 19.1 24.8307 19.1 24.8284 19.1C24.8261 19.1 24.8239 19.1 24.8216 19.1C24.8193 19.1 24.817 19.1 24.8147 19.1C24.8124 19.1 24.8102 19.1 24.8079 19.1C24.8056 19.1 24.8033 19.1 24.801 19.1C24.7987 19.1 24.7964 19.1 24.7942 19.1C24.7919 19.1 24.7896 19.1 24.7873 19.1C24.785 19.1 24.7827 19.1 24.7804 19.1C24.7781 19.1 24.7758 19.1 24.7735 19.1C24.7712 19.1 24.7689 19.1 24.7666 19.1C24.7643 19.1 24.762 19.1 24.7597 19.1C24.7574 19.1 24.7551 19.1 24.7528 19.1C24.7505 19.1 24.7482 19.1 24.7459 19.1C24.7436 19.1 24.7413 19.1 24.739 19.1C24.7367 19.1 24.7344 19.1 24.7321 19.1C24.7297 19.1 24.7274 19.1 24.7251 19.1C24.7228 19.1 24.7205 19.1 24.7182 19.1C24.7159 19.1 24.7136 19.1 24.7112 19.1C24.7089 19.1 24.7066 19.1 24.7043 19.1C24.702 19.1 24.6997 19.1 24.6973 19.1C24.695 19.1 24.6927 19.1 24.6904 19.1C24.6881 19.1 24.6857 19.1 24.6834 19.1C24.6811 19.1 24.6788 19.1 24.6765 19.1C24.6741 19.1 24.6718 19.1 24.6695 19.1C24.6672 19.1 24.6648 19.1 24.6625 19.1C24.6602 19.1 24.6578 19.1 24.6555 19.1C24.6532 19.1 24.6509 19.1 24.6485 19.1C24.6462 19.1 24.6439 19.1 24.6415 19.1C24.6392 19.1 24.6369 19.1 24.6345 19.1C24.6322 19.1 24.6299 19.1 24.6275 19.1C24.6252 19.1 24.6229 19.1 24.6205 19.1C24.6182 19.1 24.6158 19.1 24.6135 19.1C24.6112 19.1 24.6088 19.1 24.6065 19.1C24.6042 19.1 24.6018 19.1 24.5995 19.1C24.5971 19.1 24.5948 19.1 24.5924 19.1C24.5901 19.1 24.5878 19.1 24.5854 19.1C24.5831 19.1 24.5807 19.1 24.5784 19.1C24.576 19.1 24.5737 19.1 24.5713 19.1C24.569 19.1 24.5667 19.1 24.5643 19.1C24.562 19.1 24.5596 19.1 24.5573 19.1C24.5549 19.1 24.5526 19.1 24.5502 19.1C24.5479 19.1 24.5455 19.1 24.5432 19.1C24.5408 19.1 24.5385 19.1 24.5361 19.1C24.5338 19.1 24.5314 19.1 24.5291 19.1C24.5267 19.1 24.5244 19.1 24.522 19.1C24.5196 19.1 24.5173 19.1 24.5149 19.1C24.5126 19.1 24.5102 19.1 24.5079 19.1C24.5055 19.1 24.5032 19.1 24.5008 19.1C24.4984 19.1 24.4961 19.1 24.4937 19.1C24.4914 19.1 24.489 19.1 24.4867 19.1C24.4843 19.1 24.4819 19.1 24.4796 19.1C24.4772 19.1 24.4749 19.1 24.4725 19.1C24.4701 19.1 24.4678 19.1 24.4654 19.1C24.4631 19.1 24.4607 19.1 24.4583 19.1C24.456 19.1 24.4536 19.1 24.4513 19.1C24.4489 19.1 24.4465 19.1 24.4442 19.1C24.4418 19.1 24.4394 19.1 24.4371 19.1C24.4347 19.1 24.4324 19.1 24.43 19.1C24.4276 19.1 24.4253 19.1 24.4229 19.1C24.4205 19.1 24.4182 19.1 24.4158 19.1C24.4134 19.1 24.4111 19.1 24.4087 19.1C24.4064 19.1 24.404 19.1 24.4016 19.1C24.3993 19.1 24.3969 19.1 24.3945 19.1C24.3922 19.1 24.3898 19.1 24.3874 19.1C24.3851 19.1 24.3827 19.1 24.3803 19.1C24.378 19.1 24.3756 19.1 24.3732 19.1C24.3709 19.1 24.3685 19.1 24.3661 19.1C24.3638 19.1 24.3614 19.1 24.359 19.1C24.3567 19.1 24.3543 19.1 24.3519 19.1C24.3496 19.1 24.3472 19.1 24.3448 19.1C24.3425 19.1 24.3401 19.1 24.3377 19.1C24.3354 19.1 24.333 19.1 24.3306 19.1C24.3283 19.1 24.3259 19.1 24.3235 19.1C24.3212 19.1 24.3188 19.1 24.3164 19.1C24.3141 19.1 24.3117 19.1 24.3093 19.1C24.307 19.1 24.3046 19.1 24.3022 19.1C24.2999 19.1 24.2975 19.1 24.2951 19.1C24.2928 19.1 24.2904 19.1 24.288 19.1C24.2857 19.1 24.2833 19.1 24.2809 19.1C24.2786 19.1 24.2762 19.1 24.2738 19.1C24.2715 19.1 24.2691 19.1 24.2667 19.1C24.2644 19.1 24.262 19.1 24.2596 19.1C24.2573 19.1 24.2549 19.1 24.2525 19.1C24.2502 19.1 24.2478 19.1 24.2454 19.1C24.2431 19.1 24.2407 19.1 24.2383 19.1C24.236 19.1 24.2336 19.1 24.2312 19.1C24.2289 19.1 24.2265 19.1 24.2241 19.1C24.2218 19.1 24.2194 19.1 24.2171 19.1C24.2147 19.1 24.2123 19.1 24.21 19.1C24.2076 19.1 24.2052 19.1 24.2029 19.1C24.2005 19.1 24.1981 19.1 24.1958 19.1C24.1934 19.1 24.1911 19.1 24.1887 19.1C24.1863 19.1 24.184 19.1 24.1816 19.1C24.1793 19.1 24.1769 19.1 24.1745 19.1C24.1722 19.1 24.1698 19.1 24.1675 19.1C24.1651 19.1 24.1627 19.1 24.1604 19.1C24.158 19.1 24.1557 19.1 24.1533 19.1C24.151 19.1 24.1486 19.1 24.1462 19.1C24.1439 19.1 24.1415 19.1 24.1392 19.1C24.1368 19.1 24.1345 19.1 24.1321 19.1C24.1297 19.1 24.1274 19.1 24.125 19.1C24.1227 19.1 24.1203 19.1 24.118 19.1C24.1156 19.1 24.1133 19.1 24.1109 19.1C24.1086 19.1 24.1062 19.1 24.1039 19.1C24.1015 19.1 24.0992 19.1 24.0968 19.1C24.0945 19.1 24.0921 19.1 24.0898 19.1C24.0874 19.1 24.0851 19.1 24.0827 19.1C24.0804 19.1 24.078 19.1 24.0757 19.1C24.0733 19.1 24.071 19.1 24.0686 19.1C24.0663 19.1 24.0639 19.1 24.0616 19.1C24.0593 19.1 24.0569 19.1 24.0546 19.1C24.0522 19.1 24.0499 19.1 24.0475 19.1C24.0452 19.1 24.0429 19.1 24.0405 19.1C24.0382 19.1 24.0358 19.1 24.0335 19.1C24.0312 19.1 24.0288 19.1 24.0265 19.1C24.0242 19.1 24.0218 19.1 24.0195 19.1C24.0171 19.1 24.0148 19.1 24.0125 19.1C24.0101 19.1 24.0078 19.1 24.0055 19.1C24.0031 19.1 24.0008 19.1 23.9985 19.1C23.9961 19.1 23.9938 19.1 23.9915 19.1C23.9892 19.1 23.9868 19.1 23.9845 19.1C23.9822 19.1 23.9798 19.1 23.9775 19.1C23.9752 19.1 23.9729 19.1 23.9705 19.1C23.9682 19.1 23.9659 19.1 23.9636 19.1C23.9612 19.1 23.9589 19.1 23.9566 19.1C23.9543 19.1 23.952 19.1 23.9496 19.1C23.9473 19.1 23.945 19.1 23.9427 19.1C23.9404 19.1 23.938 19.1 23.9357 19.1C23.9334 19.1 23.9311 19.1 23.9288 19.1C23.9265 19.1 23.9242 19.1 23.9218 19.1C23.9195 19.1 23.9172 19.1 23.9149 19.1C23.9126 19.1 23.9103 19.1 23.908 19.1C23.9057 19.1 23.9034 19.1 23.9011 19.1C23.8988 19.1 23.8965 19.1 23.8941 19.1C23.8918 19.1 23.8895 19.1 23.8872 19.1C23.8849 19.1 23.8826 19.1 23.8803 19.1C23.878 19.1 23.8757 19.1 23.8734 19.1C23.8711 19.1 23.8688 19.1 23.8666 19.1C23.8643 19.1 23.862 19.1 23.8597 19.1C23.8574 19.1 23.8551 19.1 23.8528 19.1C23.8505 19.1 23.8482 19.1 23.8459 19.1C23.8436 19.1 23.8413 19.1 23.8391 19.1C23.8368 19.1 23.8345 19.1 23.8322 19.1C23.8299 19.1 23.8276 19.1 23.8254 19.1C23.8231 19.1 23.8208 19.1 23.8185 19.1C23.8162 19.1 23.814 19.1 23.8117 19.1C23.8094 19.1 23.8071 19.1 23.8049 19.1C23.8026 19.1 23.8003 19.1 23.798 19.1C23.7958 19.1 23.7935 19.1 23.7912 19.1C23.789 19.1 23.7867 19.1 23.7844 19.1C23.7822 19.1 23.7799 19.1 23.7776 19.1C23.7754 19.1 23.7731 19.1 23.7708 19.1C23.7686 19.1 23.7663 19.1 23.7641 19.1C23.7618 19.1 23.7595 19.1 23.7573 19.1C23.755 19.1 23.7528 19.1 23.7505 19.1C23.7483 19.1 23.746 19.1 23.7438 19.1C23.7415 19.1 23.7393 19.1 23.737 19.1C23.7348 19.1 23.7325 19.1 23.7303 19.1C23.728 19.1 23.7258 19.1 23.7236 19.1C23.7213 19.1 23.7191 19.1 23.7168 19.1C23.7146 19.1 23.7124 19.1 23.7101 19.1C23.7079 19.1 23.7057 19.1 23.7034 19.1C23.7012 19.1 23.699 19.1 23.6967 19.1C23.6945 19.1 23.6923 19.1 23.6901 19.1C23.6878 19.1 23.6856 19.1 23.6834 19.1C23.6812 19.1 23.6789 19.1 23.6767 19.1C23.6745 19.1 23.6723 19.1 23.6701 19.1C23.6678 19.1 23.6656 19.1 23.6634 19.1C23.6612 19.1 23.659 19.1 23.6568 19.1C23.6546 19.1 23.6524 19.1 23.6502 19.1C23.648 19.1 23.6457 19.1 23.6435 19.1C23.6413 19.1 23.6391 19.1 23.6369 19.1C23.6347 19.1 23.6325 19.1 23.6303 19.1C23.6281 19.1 23.626 19.1 23.6238 19.1C23.6216 19.1 23.6194 19.1 23.6172 19.1C23.615 19.1 23.6128 19.1 23.6106 19.1C23.6084 19.1 23.6062 19.1 23.6041 19.1C23.6019 19.1 23.5997 19.1 23.5975 19.1C23.5953 19.1 23.5932 19.1 23.591 19.1C23.5888 19.1 23.5866 19.1 23.5845 19.1C23.5823 19.1 23.5801 19.1 23.578 19.1C23.5758 19.1 23.5736 19.1 23.5715 19.1C23.5693 19.1 23.5671 19.1 23.565 19.1C23.5628 19.1 23.5606 19.1 23.5585 19.1C23.5563 19.1 23.5542 19.1 23.552 19.1C23.5499 19.1 23.5477 19.1 23.5456 19.1C23.5434 19.1 23.5413 19.1 23.5391 19.1C23.537 19.1 23.5348 19.1 23.5327 19.1C23.5306 19.1 23.5284 19.1 23.5263 19.1C23.5241 19.1 23.522 19.1 23.5199 19.1C23.5177 19.1 23.5156 19.1 23.5135 19.1C23.5113 19.1 23.5092 19.1 23.5071 19.1C23.505 19.1 23.5028 19.1 23.5007 19.1C23.4986 19.1 23.4965 19.1 23.4944 19.1C23.4922 19.1 23.4901 19.1 23.488 19.1C23.4859 19.1 23.4838 19.1 23.4817 19.1C23.4796 19.1 23.4775 19.1 23.4754 19.1C23.4733 19.1 23.4712 19.1 23.4691 19.1C23.467 19.1 23.4649 19.1 23.4628 19.1C23.4607 19.1 23.4586 19.1 23.4565 19.1C23.4544 19.1 23.4523 19.1 23.4502 19.1C23.4481 19.1 23.446 19.1 23.444 19.1C23.4419 19.1 23.4398 19.1 23.4377 19.1C23.4356 19.1 23.4336 19.1 23.4315 19.1C23.4294 19.1 23.4273 19.1 23.4253 19.1C23.4232 19.1 23.4211 19.1 23.4191 19.1C23.417 19.1 23.4149 19.1 23.4129 19.1C23.4108 19.1 23.4088 19.1 23.4067 19.1C23.4046 19.1 23.4026 19.1 23.4005 19.1C23.3985 19.1 23.3964 19.1 23.3944 19.1C23.3923 19.1 23.3903 19.1 23.3883 19.1C23.3862 19.1 23.3842 19.1 23.3821 19.1C23.3801 19.1 23.3781 19.1 23.376 19.1C23.374 19.1 23.372 19.1 23.3699 19.1C23.3679 19.1 23.3659 19.1 23.3639 19.1C23.3618 19.1 23.3598 19.1 23.3578 19.1C23.3558 19.1 23.3538 19.1 23.3518 19.1C23.3497 19.1 23.3477 19.1 23.3457 19.1C23.3437 19.1 23.3417 19.1 23.3397 19.1C23.3377 19.1 23.3357 19.1 23.3337 19.1C23.3317 19.1 23.3297 19.1 23.3277 19.1C23.3257 19.1 23.3237 19.1 23.3217 19.1C23.3198 19.1 23.3178 19.1 23.3158 19.1C23.3138 19.1 23.3118 19.1 23.3098 19.1C23.3079 19.1 23.3059 19.1 23.3039 19.1C23.302 19.1 23.3 19.1 23.298 19.1C23.296 19.1 23.2941 19.1 23.2921 19.1C23.2902 19.1 23.2882 19.1 23.2862 19.1C23.2843 19.1 23.2823 19.1 23.2804 19.1C23.2784 19.1 23.2765 19.1 23.2745 19.1C23.2726 19.1 23.2706 19.1 23.2687 19.1C23.2668 19.1 23.2648 19.1 23.2629 19.1C23.261 19.1 23.259 19.1 23.2571 19.1C23.2552 19.1 23.2532 19.1 23.2513 19.1C23.2494 19.1 23.2475 19.1 23.2455 19.1C23.2436 19.1 23.2417 19.1 23.2398 19.1C23.2379 19.1 23.236 19.1 23.2341 19.1C23.2322 19.1 23.2303 19.1 23.2283 19.1C23.2264 19.1 23.2245 19.1 23.2227 19.1C23.2208 19.1 23.2189 19.1 23.217 19.1C23.2151 19.1 23.2132 19.1 23.2113 19.1C23.2094 19.1 23.2075 19.1 23.2057 19.1C23.2038 19.1 23.2019 19.1 23.2 19.1C23.1982 19.1 23.1963 19.1 23.1944 19.1C23.1926 19.1 23.1907 19.1 23.1888 19.1C23.187 19.1 23.1851 19.1 23.1832 19.1C23.1814 19.1 23.1795 19.1 23.1777 19.1C23.1758 19.1 23.174 19.1 23.1721 19.1C23.1703 19.1 23.1685 19.1 23.1666 19.1C23.1648 19.1 23.163 19.1 23.1611 19.1C23.1593 19.1 23.1575 19.1 23.1556 19.1C23.1538 19.1 23.152 19.1 23.1502 19.1C23.1483 19.1 23.1465 19.1 23.1447 19.1C23.1429 19.1 23.1411 19.1 23.1393 19.1C23.1375 19.1 23.1357 19.1 23.1339 19.1C23.1321 19.1 23.1303 19.1 23.1285 19.1C23.1267 19.1 23.1249 19.1 23.1231 19.1C23.1213 19.1 23.1195 19.1 23.1177 19.1C23.116 19.1 23.1142 19.1 23.1124 19.1C23.1106 19.1 23.1089 19.1 23.1071 19.1C23.1053 19.1 23.1036 19.1 23.1018 19.1C23.1 19.1 23.0983 19.1 23.0965 19.1C23.0948 19.1 23.093 19.1 23.0913 19.1C23.0895 19.1 23.0878 19.1 23.086 19.1C23.0843 19.1 23.0825 19.1 23.0808 19.1C23.0791 19.1 23.0773 19.1 23.0756 19.1C23.0739 19.1 23.0721 19.1 23.0704 19.1C23.0687 19.1 23.067 19.1 23.0652 19.1C23.0635 19.1 23.0618 19.1 23.0601 19.1C23.0584 19.1 23.0567 19.1 23.055 19.1C23.0533 19.1 23.0516 19.1 23.0499 19.1C23.0482 19.1 23.0465 19.1 23.0448 19.1C23.0431 19.1 23.0414 19.1 23.0397 19.1C23.0381 19.1 23.0364 19.1 23.0347 19.1C23.033 19.1 23.0313 19.1 23.0297 19.1C23.028 19.1 23.0263 19.1 23.0247 19.1C23.023 19.1 23.0214 19.1 23.0197 19.1C23.018 19.1 23.0164 19.1 23.0147 19.1C23.0131 19.1 23.0114 19.1 23.0098 19.1C23.0082 19.1 23.0065 19.1 23.0049 19.1C23.0033 19.1 23.0016 19.1 23 19.1V19.9C23.0016 19.9 23.0033 19.9 23.0049 19.9C23.0065 19.9 23.0082 19.9 23.0098 19.9C23.0114 19.9 23.0131 19.9 23.0147 19.9C23.0164 19.9 23.018 19.9 23.0197 19.9C23.0214 19.9 23.023 19.9 23.0247 19.9C23.0263 19.9 23.028 19.9 23.0297 19.9C23.0313 19.9 23.033 19.9 23.0347 19.9C23.0364 19.9 23.0381 19.9 23.0397 19.9C23.0414 19.9 23.0431 19.9 23.0448 19.9C23.0465 19.9 23.0482 19.9 23.0499 19.9C23.0516 19.9 23.0533 19.9 23.055 19.9C23.0567 19.9 23.0584 19.9 23.0601 19.9C23.0618 19.9 23.0635 19.9 23.0652 19.9C23.067 19.9 23.0687 19.9 23.0704 19.9C23.0721 19.9 23.0739 19.9 23.0756 19.9C23.0773 19.9 23.0791 19.9 23.0808 19.9C23.0825 19.9 23.0843 19.9 23.086 19.9C23.0878 19.9 23.0895 19.9 23.0913 19.9C23.093 19.9 23.0948 19.9 23.0965 19.9C23.0983 19.9 23.1 19.9 23.1018 19.9C23.1036 19.9 23.1053 19.9 23.1071 19.9C23.1089 19.9 23.1106 19.9 23.1124 19.9C23.1142 19.9 23.116 19.9 23.1177 19.9C23.1195 19.9 23.1213 19.9 23.1231 19.9C23.1249 19.9 23.1267 19.9 23.1285 19.9C23.1303 19.9 23.1321 19.9 23.1339 19.9C23.1357 19.9 23.1375 19.9 23.1393 19.9C23.1411 19.9 23.1429 19.9 23.1447 19.9C23.1465 19.9 23.1483 19.9 23.1502 19.9C23.152 19.9 23.1538 19.9 23.1556 19.9C23.1575 19.9 23.1593 19.9 23.1611 19.9C23.163 19.9 23.1648 19.9 23.1666 19.9C23.1685 19.9 23.1703 19.9 23.1721 19.9C23.174 19.9 23.1758 19.9 23.1777 19.9C23.1795 19.9 23.1814 19.9 23.1832 19.9C23.1851 19.9 23.187 19.9 23.1888 19.9C23.1907 19.9 23.1926 19.9 23.1944 19.9C23.1963 19.9 23.1982 19.9 23.2 19.9C23.2019 19.9 23.2038 19.9 23.2057 19.9C23.2075 19.9 23.2094 19.9 23.2113 19.9C23.2132 19.9 23.2151 19.9 23.217 19.9C23.2189 19.9 23.2208 19.9 23.2227 19.9C23.2245 19.9 23.2264 19.9 23.2283 19.9C23.2303 19.9 23.2322 19.9 23.2341 19.9C23.236 19.9 23.2379 19.9 23.2398 19.9C23.2417 19.9 23.2436 19.9 23.2455 19.9C23.2475 19.9 23.2494 19.9 23.2513 19.9C23.2532 19.9 23.2552 19.9 23.2571 19.9C23.259 19.9 23.261 19.9 23.2629 19.9C23.2648 19.9 23.2668 19.9 23.2687 19.9C23.2706 19.9 23.2726 19.9 23.2745 19.9C23.2765 19.9 23.2784 19.9 23.2804 19.9C23.2823 19.9 23.2843 19.9 23.2862 19.9C23.2882 19.9 23.2902 19.9 23.2921 19.9C23.2941 19.9 23.296 19.9 23.298 19.9C23.3 19.9 23.302 19.9 23.3039 19.9C23.3059 19.9 23.3079 19.9 23.3098 19.9C23.3118 19.9 23.3138 19.9 23.3158 19.9C23.3178 19.9 23.3198 19.9 23.3217 19.9C23.3237 19.9 23.3257 19.9 23.3277 19.9C23.3297 19.9 23.3317 19.9 23.3337 19.9C23.3357 19.9 23.3377 19.9 23.3397 19.9C23.3417 19.9 23.3437 19.9 23.3457 19.9C23.3477 19.9 23.3497 19.9 23.3518 19.9C23.3538 19.9 23.3558 19.9 23.3578 19.9C23.3598 19.9 23.3618 19.9 23.3639 19.9C23.3659 19.9 23.3679 19.9 23.3699 19.9C23.372 19.9 23.374 19.9 23.376 19.9C23.3781 19.9 23.3801 19.9 23.3821 19.9C23.3842 19.9 23.3862 19.9 23.3883 19.9C23.3903 19.9 23.3923 19.9 23.3944 19.9C23.3964 19.9 23.3985 19.9 23.4005 19.9C23.4026 19.9 23.4046 19.9 23.4067 19.9C23.4088 19.9 23.4108 19.9 23.4129 19.9C23.4149 19.9 23.417 19.9 23.4191 19.9C23.4211 19.9 23.4232 19.9 23.4253 19.9C23.4273 19.9 23.4294 19.9 23.4315 19.9C23.4336 19.9 23.4356 19.9 23.4377 19.9C23.4398 19.9 23.4419 19.9 23.444 19.9C23.446 19.9 23.4481 19.9 23.4502 19.9C23.4523 19.9 23.4544 19.9 23.4565 19.9C23.4586 19.9 23.4607 19.9 23.4628 19.9C23.4649 19.9 23.467 19.9 23.4691 19.9C23.4712 19.9 23.4733 19.9 23.4754 19.9C23.4775 19.9 23.4796 19.9 23.4817 19.9C23.4838 19.9 23.4859 19.9 23.488 19.9C23.4901 19.9 23.4922 19.9 23.4944 19.9C23.4965 19.9 23.4986 19.9 23.5007 19.9C23.5028 19.9 23.505 19.9 23.5071 19.9C23.5092 19.9 23.5113 19.9 23.5135 19.9C23.5156 19.9 23.5177 19.9 23.5199 19.9C23.522 19.9 23.5241 19.9 23.5263 19.9C23.5284 19.9 23.5306 19.9 23.5327 19.9C23.5348 19.9 23.537 19.9 23.5391 19.9C23.5413 19.9 23.5434 19.9 23.5456 19.9C23.5477 19.9 23.5499 19.9 23.552 19.9C23.5542 19.9 23.5563 19.9 23.5585 19.9C23.5606 19.9 23.5628 19.9 23.565 19.9C23.5671 19.9 23.5693 19.9 23.5715 19.9C23.5736 19.9 23.5758 19.9 23.578 19.9C23.5801 19.9 23.5823 19.9 23.5845 19.9C23.5866 19.9 23.5888 19.9 23.591 19.9C23.5932 19.9 23.5953 19.9 23.5975 19.9C23.5997 19.9 23.6019 19.9 23.6041 19.9C23.6062 19.9 23.6084 19.9 23.6106 19.9C23.6128 19.9 23.615 19.9 23.6172 19.9C23.6194 19.9 23.6216 19.9 23.6238 19.9C23.626 19.9 23.6281 19.9 23.6303 19.9C23.6325 19.9 23.6347 19.9 23.6369 19.9C23.6391 19.9 23.6413 19.9 23.6435 19.9C23.6457 19.9 23.648 19.9 23.6502 19.9C23.6524 19.9 23.6546 19.9 23.6568 19.9C23.659 19.9 23.6612 19.9 23.6634 19.9C23.6656 19.9 23.6678 19.9 23.6701 19.9C23.6723 19.9 23.6745 19.9 23.6767 19.9C23.6789 19.9 23.6812 19.9 23.6834 19.9C23.6856 19.9 23.6878 19.9 23.6901 19.9C23.6923 19.9 23.6945 19.9 23.6967 19.9C23.699 19.9 23.7012 19.9 23.7034 19.9C23.7057 19.9 23.7079 19.9 23.7101 19.9C23.7124 19.9 23.7146 19.9 23.7168 19.9C23.7191 19.9 23.7213 19.9 23.7236 19.9C23.7258 19.9 23.728 19.9 23.7303 19.9C23.7325 19.9 23.7348 19.9 23.737 19.9C23.7393 19.9 23.7415 19.9 23.7438 19.9C23.746 19.9 23.7483 19.9 23.7505 19.9C23.7528 19.9 23.755 19.9 23.7573 19.9C23.7595 19.9 23.7618 19.9 23.7641 19.9C23.7663 19.9 23.7686 19.9 23.7708 19.9C23.7731 19.9 23.7754 19.9 23.7776 19.9C23.7799 19.9 23.7822 19.9 23.7844 19.9C23.7867 19.9 23.789 19.9 23.7912 19.9C23.7935 19.9 23.7958 19.9 23.798 19.9C23.8003 19.9 23.8026 19.9 23.8049 19.9C23.8071 19.9 23.8094 19.9 23.8117 19.9C23.814 19.9 23.8162 19.9 23.8185 19.9C23.8208 19.9 23.8231 19.9 23.8254 19.9C23.8276 19.9 23.8299 19.9 23.8322 19.9C23.8345 19.9 23.8368 19.9 23.8391 19.9C23.8413 19.9 23.8436 19.9 23.8459 19.9C23.8482 19.9 23.8505 19.9 23.8528 19.9C23.8551 19.9 23.8574 19.9 23.8597 19.9C23.862 19.9 23.8643 19.9 23.8666 19.9C23.8688 19.9 23.8711 19.9 23.8734 19.9C23.8757 19.9 23.878 19.9 23.8803 19.9C23.8826 19.9 23.8849 19.9 23.8872 19.9C23.8895 19.9 23.8918 19.9 23.8941 19.9C23.8965 19.9 23.8988 19.9 23.9011 19.9C23.9034 19.9 23.9057 19.9 23.908 19.9C23.9103 19.9 23.9126 19.9 23.9149 19.9C23.9172 19.9 23.9195 19.9 23.9218 19.9C23.9242 19.9 23.9265 19.9 23.9288 19.9C23.9311 19.9 23.9334 19.9 23.9357 19.9C23.938 19.9 23.9404 19.9 23.9427 19.9C23.945 19.9 23.9473 19.9 23.9496 19.9C23.952 19.9 23.9543 19.9 23.9566 19.9C23.9589 19.9 23.9612 19.9 23.9636 19.9C23.9659 19.9 23.9682 19.9 23.9705 19.9C23.9729 19.9 23.9752 19.9 23.9775 19.9C23.9798 19.9 23.9822 19.9 23.9845 19.9C23.9868 19.9 23.9892 19.9 23.9915 19.9C23.9938 19.9 23.9961 19.9 23.9985 19.9C24.0008 19.9 24.0031 19.9 24.0055 19.9C24.0078 19.9 24.0101 19.9 24.0125 19.9C24.0148 19.9 24.0171 19.9 24.0195 19.9C24.0218 19.9 24.0242 19.9 24.0265 19.9C24.0288 19.9 24.0312 19.9 24.0335 19.9C24.0358 19.9 24.0382 19.9 24.0405 19.9C24.0429 19.9 24.0452 19.9 24.0475 19.9C24.0499 19.9 24.0522 19.9 24.0546 19.9C24.0569 19.9 24.0593 19.9 24.0616 19.9C24.0639 19.9 24.0663 19.9 24.0686 19.9C24.071 19.9 24.0733 19.9 24.0757 19.9C24.078 19.9 24.0804 19.9 24.0827 19.9C24.0851 19.9 24.0874 19.9 24.0898 19.9C24.0921 19.9 24.0945 19.9 24.0968 19.9C24.0992 19.9 24.1015 19.9 24.1039 19.9C24.1062 19.9 24.1086 19.9 24.1109 19.9C24.1133 19.9 24.1156 19.9 24.118 19.9C24.1203 19.9 24.1227 19.9 24.125 19.9C24.1274 19.9 24.1297 19.9 24.1321 19.9C24.1345 19.9 24.1368 19.9 24.1392 19.9C24.1415 19.9 24.1439 19.9 24.1462 19.9C24.1486 19.9 24.151 19.9 24.1533 19.9C24.1557 19.9 24.158 19.9 24.1604 19.9C24.1627 19.9 24.1651 19.9 24.1675 19.9C24.1698 19.9 24.1722 19.9 24.1745 19.9C24.1769 19.9 24.1793 19.9 24.1816 19.9C24.184 19.9 24.1863 19.9 24.1887 19.9C24.1911 19.9 24.1934 19.9 24.1958 19.9C24.1981 19.9 24.2005 19.9 24.2029 19.9C24.2052 19.9 24.2076 19.9 24.21 19.9C24.2123 19.9 24.2147 19.9 24.2171 19.9C24.2194 19.9 24.2218 19.9 24.2241 19.9C24.2265 19.9 24.2289 19.9 24.2312 19.9C24.2336 19.9 24.236 19.9 24.2383 19.9C24.2407 19.9 24.2431 19.9 24.2454 19.9C24.2478 19.9 24.2502 19.9 24.2525 19.9C24.2549 19.9 24.2573 19.9 24.2596 19.9C24.262 19.9 24.2644 19.9 24.2667 19.9C24.2691 19.9 24.2715 19.9 24.2738 19.9C24.2762 19.9 24.2786 19.9 24.2809 19.9C24.2833 19.9 24.2857 19.9 24.288 19.9C24.2904 19.9 24.2928 19.9 24.2951 19.9C24.2975 19.9 24.2999 19.9 24.3022 19.9C24.3046 19.9 24.307 19.9 24.3093 19.9C24.3117 19.9 24.3141 19.9 24.3164 19.9C24.3188 19.9 24.3212 19.9 24.3235 19.9C24.3259 19.9 24.3283 19.9 24.3306 19.9C24.333 19.9 24.3354 19.9 24.3377 19.9C24.3401 19.9 24.3425 19.9 24.3448 19.9C24.3472 19.9 24.3496 19.9 24.3519 19.9C24.3543 19.9 24.3567 19.9 24.359 19.9C24.3614 19.9 24.3638 19.9 24.3661 19.9C24.3685 19.9 24.3709 19.9 24.3732 19.9C24.3756 19.9 24.378 19.9 24.3803 19.9C24.3827 19.9 24.3851 19.9 24.3874 19.9C24.3898 19.9 24.3922 19.9 24.3945 19.9C24.3969 19.9 24.3993 19.9 24.4016 19.9C24.404 19.9 24.4064 19.9 24.4087 19.9C24.4111 19.9 24.4134 19.9 24.4158 19.9C24.4182 19.9 24.4205 19.9 24.4229 19.9C24.4253 19.9 24.4276 19.9 24.43 19.9C24.4324 19.9 24.4347 19.9 24.4371 19.9C24.4394 19.9 24.4418 19.9 24.4442 19.9C24.4465 19.9 24.4489 19.9 24.4513 19.9C24.4536 19.9 24.456 19.9 24.4583 19.9C24.4607 19.9 24.4631 19.9 24.4654 19.9C24.4678 19.9 24.4701 19.9 24.4725 19.9C24.4749 19.9 24.4772 19.9 24.4796 19.9C24.4819 19.9 24.4843 19.9 24.4867 19.9C24.489 19.9 24.4914 19.9 24.4937 19.9C24.4961 19.9 24.4984 19.9 24.5008 19.9C24.5032 19.9 24.5055 19.9 24.5079 19.9C24.5102 19.9 24.5126 19.9 24.5149 19.9C24.5173 19.9 24.5196 19.9 24.522 19.9C24.5244 19.9 24.5267 19.9 24.5291 19.9C24.5314 19.9 24.5338 19.9 24.5361 19.9C24.5385 19.9 24.5408 19.9 24.5432 19.9C24.5455 19.9 24.5479 19.9 24.5502 19.9C24.5526 19.9 24.5549 19.9 24.5573 19.9C24.5596 19.9 24.562 19.9 24.5643 19.9C24.5667 19.9 24.569 19.9 24.5713 19.9C24.5737 19.9 24.576 19.9 24.5784 19.9C24.5807 19.9 24.5831 19.9 24.5854 19.9C24.5878 19.9 24.5901 19.9 24.5924 19.9C24.5948 19.9 24.5971 19.9 24.5995 19.9C24.6018 19.9 24.6042 19.9 24.6065 19.9C24.6088 19.9 24.6112 19.9 24.6135 19.9C24.6158 19.9 24.6182 19.9 24.6205 19.9C24.6229 19.9 24.6252 19.9 24.6275 19.9C24.6299 19.9 24.6322 19.9 24.6345 19.9C24.6369 19.9 24.6392 19.9 24.6415 19.9C24.6439 19.9 24.6462 19.9 24.6485 19.9C24.6509 19.9 24.6532 19.9 24.6555 19.9C24.6578 19.9 24.6602 19.9 24.6625 19.9C24.6648 19.9 24.6672 19.9 24.6695 19.9C24.6718 19.9 24.6741 19.9 24.6765 19.9C24.6788 19.9 24.6811 19.9 24.6834 19.9C24.6857 19.9 24.6881 19.9 24.6904 19.9C24.6927 19.9 24.695 19.9 24.6973 19.9C24.6997 19.9 24.702 19.9 24.7043 19.9C24.7066 19.9 24.7089 19.9 24.7112 19.9C24.7136 19.9 24.7159 19.9 24.7182 19.9C24.7205 19.9 24.7228 19.9 24.7251 19.9C24.7274 19.9 24.7297 19.9 24.7321 19.9C24.7344 19.9 24.7367 19.9 24.739 19.9C24.7413 19.9 24.7436 19.9 24.7459 19.9C24.7482 19.9 24.7505 19.9 24.7528 19.9C24.7551 19.9 24.7574 19.9 24.7597 19.9C24.762 19.9 24.7643 19.9 24.7666 19.9C24.7689 19.9 24.7712 19.9 24.7735 19.9C24.7758 19.9 24.7781 19.9 24.7804 19.9C24.7827 19.9 24.785 19.9 24.7873 19.9C24.7896 19.9 24.7919 19.9 24.7942 19.9C24.7964 19.9 24.7987 19.9 24.801 19.9C24.8033 19.9 24.8056 19.9 24.8079 19.9C24.8102 19.9 24.8124 19.9 24.8147 19.9C24.817 19.9 24.8193 19.9 24.8216 19.9C24.8239 19.9 24.8261 19.9 24.8284 19.9C24.8307 19.9 24.833 19.9 24.8352 19.9C24.8375 19.9 24.8398 19.9 24.8421 19.9C24.8443 19.9 24.8466 19.9 24.8489 19.9C24.8512 19.9 24.8534 19.9 24.8557 19.9C24.858 19.9 24.8602 19.9 24.8625 19.9C24.8648 19.9 24.867 19.9 24.8693 19.9C24.8715 19.9 24.8738 19.9 24.8761 19.9C24.8783 19.9 24.8806 19.9 24.8828 19.9C24.8851 19.9 24.8873 19.9 24.8896 19.9C24.8919 19.9 24.8941 19.9 24.8964 19.9C24.8986 19.9 24.9009 19.9 24.9031 19.9C24.9054 19.9 24.9076 19.9 24.9099 19.9C24.9121 19.9 24.9143 19.9 24.9166 19.9C24.9188 19.9 24.9211 19.9 24.9233 19.9C24.9256 19.9 24.9278 19.9 24.93 19.9C24.9323 19.9 24.9345 19.9 24.9367 19.9C24.939 19.9 24.9412 19.9 24.9434 19.9C24.9457 19.9 24.9479 19.9 24.9501 19.9C24.9523 19.9 24.9546 19.9 24.9568 19.9C24.959 19.9 24.9612 19.9 24.9635 19.9C24.9657 19.9 24.9679 19.9 24.9701 19.9C24.9723 19.9 24.9746 19.9 24.9768 19.9C24.979 19.9 24.9812 19.9 24.9834 19.9C24.9856 19.9 24.9878 19.9 24.99 19.9C24.9923 19.9 24.9945 19.9 24.9967 19.9C24.9989 19.9 25.0011 19.9 25.0033 19.9C25.0055 19.9 25.0077 19.9 25.0099 19.9C25.0121 19.9 25.0143 19.9 25.0165 19.9C25.0187 19.9 25.0209 19.9 25.0231 19.9C25.0252 19.9 25.0274 19.9 25.0296 19.9C25.0318 19.9 25.034 19.9 25.0362 19.9C25.0384 19.9 25.0405 19.9 25.0427 19.9C25.0449 19.9 25.0471 19.9 25.0493 19.9C25.0514 19.9 25.0536 19.9 25.0558 19.9C25.058 19.9 25.0601 19.9 25.0623 19.9C25.0645 19.9 25.0667 19.9 25.0688 19.9C25.071 19.9 25.0731 19.9 25.0753 19.9C25.0775 19.9 25.0796 19.9 25.0818 19.9C25.084 19.9 25.0861 19.9 25.0883 19.9C25.0904 19.9 25.0926 19.9 25.0947 19.9C25.0969 19.9 25.099 19.9 25.1012 19.9C25.1033 19.9 25.1055 19.9 25.1076 19.9C25.1098 19.9 25.1119 19.9 25.114 19.9C25.1162 19.9 25.1183 19.9 25.1205 19.9C25.1226 19.9 25.1247 19.9 25.1269 19.9C25.129 19.9 25.1311 19.9 25.1332 19.9C25.1354 19.9 25.1375 19.9 25.1396 19.9C25.1417 19.9 25.1439 19.9 25.146 19.9C25.1481 19.9 25.1502 19.9 25.1523 19.9C25.1545 19.9 25.1566 19.9 25.1587 19.9C25.1608 19.9 25.1629 19.9 25.165 19.9C25.1671 19.9 25.1692 19.9 25.1713 19.9C25.1734 19.9 25.1755 19.9 25.1776 19.9C25.1797 19.9 25.1818 19.9 25.1839 19.9C25.186 19.9 25.1881 19.9 25.1902 19.9C25.1923 19.9 25.1944 19.9 25.1965 19.9C25.1985 19.9 25.2006 19.9 25.2027 19.9C25.2048 19.9 25.2069 19.9 25.2089 19.9C25.211 19.9 25.2131 19.9 25.2152 19.9C25.2172 19.9 25.2193 19.9 25.2214 19.9C25.2234 19.9 25.2255 19.9 25.2276 19.9C25.2296 19.9 25.2317 19.9 25.2337 19.9C25.2358 19.9 25.2379 19.9 25.2399 19.9C25.242 19.9 25.244 19.9 25.2461 19.9C25.2481 19.9 25.2502 19.9 25.2522 19.9C25.2543 19.9 25.2563 19.9 25.2583 19.9C25.2604 19.9 25.2624 19.9 25.2645 19.9C25.2665 19.9 25.2685 19.9 25.2706 19.9C25.2726 19.9 25.2746 19.9 25.2766 19.9C25.2787 19.9 25.2807 19.9 25.2827 19.9C25.2847 19.9 25.2867 19.9 25.2888 19.9C25.2908 19.9 25.2928 19.9 25.2948 19.9C25.2968 19.9 25.2988 19.9 25.3008 19.9C25.3028 19.9 25.3048 19.9 25.3068 19.9C25.3088 19.9 25.3108 19.9 25.3128 19.9C25.3148 19.9 25.3168 19.9 25.3188 19.9C25.3208 19.9 25.3228 19.9 25.3248 19.9C25.3268 19.9 25.3287 19.9 25.3307 19.9C25.3327 19.9 25.3347 19.9 25.3367 19.9C25.3386 19.9 25.3406 19.9 25.3426 19.9C25.3445 19.9 25.3465 19.9 25.3485 19.9C25.3504 19.9 25.3524 19.9 25.3544 19.9C25.3563 19.9 25.3583 19.9 25.3602 19.9C25.3622 19.9 25.3641 19.9 25.3661 19.9C25.368 19.9 25.37 19.9 25.3719 19.9C25.3739 19.9 25.3758 19.9 25.3778 19.9C25.3797 19.9 25.3816 19.9 25.3836 19.9C25.3855 19.9 25.3874 19.9 25.3894 19.9C25.3913 19.9 25.3932 19.9 25.3951 19.9C25.397 19.9 25.399 19.9 25.4009 19.9C25.4028 19.9 25.4047 19.9 25.4066 19.9C25.4085 19.9 25.4104 19.9 25.4123 19.9C25.4143 19.9 25.4162 19.9 25.4181 19.9C25.42 19.9 25.4219 19.9 25.4237 19.9C25.4256 19.9 25.4275 19.9 25.4294 19.9C25.4313 19.9 25.4332 19.9 25.4351 19.9C25.437 19.9 25.4388 19.9 25.4407 19.9C25.4426 19.9 25.4445 19.9 25.4463 19.9C25.4482 19.9 25.4501 19.9 25.4519 19.9C25.4538 19.9 25.4557 19.9 25.4575 19.9C25.4594 19.9 25.4612 19.9 25.4631 19.9C25.4649 19.9 25.4668 19.9 25.4686 19.9C25.4705 19.9 25.4723 19.9 25.4742 19.9C25.476 19.9 25.4779 19.9 25.4797 19.9C25.4815 19.9 25.4834 19.9 25.4852 19.9C25.487 19.9 25.4888 19.9 25.4907 19.9C25.4925 19.9 25.4943 19.9 25.4961 19.9C25.4979 19.9 25.4998 19.9 25.5016 19.9C25.5034 19.9 25.5052 19.9 25.507 19.9C25.5088 19.9 25.5106 19.9 25.5124 19.9C25.5142 19.9 25.516 19.9 25.5178 19.9C25.5196 19.9 25.5214 19.9 25.5231 19.9C25.5249 19.9 25.5267 19.9 25.5285 19.9C25.5303 19.9 25.532 19.9 25.5338 19.9C25.5356 19.9 25.5374 19.9 25.5391 19.9C25.5409 19.9 25.5427 19.9 25.5444 19.9C25.5462 19.9 25.5479 19.9 25.5497 19.9C25.5514 19.9 25.5532 19.9 25.5549 19.9C25.5567 19.9 25.5584 19.9 25.5602 19.9C25.5619 19.9 25.5636 19.9 25.5654 19.9C25.5671 19.9 25.5688 19.9 25.5706 19.9C25.5723 19.9 25.574 19.9 25.5757 19.9C25.5775 19.9 25.5792 19.9 25.5809 19.9C25.5826 19.9 25.5843 19.9 25.586 19.9C25.5877 19.9 25.5894 19.9 25.5911 19.9C25.5928 19.9 25.5945 19.9 25.5962 19.9C25.5979 19.9 25.5996 19.9 25.6013 19.9C25.603 19.9 25.6047 19.9 25.6064 19.9C25.608 19.9 25.6097 19.9 25.6114 19.9C25.6131 19.9 25.6147 19.9 25.6164 19.9C25.6181 19.9 25.6197 19.9 25.6214 19.9C25.6231 19.9 25.6247 19.9 25.6264 19.9C25.628 19.9 25.6297 19.9 25.6313 19.9C25.633 19.9 25.6346 19.9 25.6362 19.9C25.6379 19.9 25.6395 19.9 25.6411 19.9C25.6428 19.9 25.6444 19.9 25.646 19.9C25.6476 19.9 25.6493 19.9 25.6509 19.9C25.6525 19.9 25.6541 19.9 25.6557 19.9C25.6573 19.9 25.6589 19.9 25.6605 19.9C25.6621 19.9 25.6637 19.9 25.6653 19.9C25.6669 19.9 25.6685 19.9 25.6701 19.9C25.6717 19.9 25.6733 19.9 25.6749 19.9C25.6764 19.9 25.678 19.9 25.6796 19.9C25.6812 19.9 25.6827 19.9 25.6843 19.9C25.6859 19.9 25.6874 19.9 25.689 19.9C25.6906 19.9 25.6921 19.9 25.6937 19.9C25.6952 19.9 25.6968 19.9 25.6983 19.9C25.6998 19.9 25.7014 19.9 25.7029 19.9C25.7045 19.9 25.706 19.9 25.7075 19.9C25.709 19.9 25.7106 19.9 25.7121 19.9C25.7136 19.9 25.7151 19.9 25.7166 19.9C25.7182 19.9 25.7197 19.9 25.7212 19.9C25.7227 19.9 25.7242 19.9 25.7257 19.9C25.7272 19.9 25.7287 19.9 25.7302 19.9C25.7317 19.9 25.7331 19.9 25.7346 19.9C25.7361 19.9 25.7376 19.9 25.7391 19.9C25.7405 19.9 25.742 19.9 25.7435 19.9C25.7449 19.9 25.7464 19.9 25.7479 19.9C25.7493 19.9 25.7508 19.9 25.7522 19.9C25.7537 19.9 25.7551 19.9 25.7566 19.9C25.758 19.9 25.7594 19.9 25.7609 19.9C25.7623 19.9 25.7638 19.9 25.7652 19.9C25.7666 19.9 25.768 19.9 25.7694 19.9C25.7709 19.9 25.7723 19.9 25.7737 19.9C25.7751 19.9 25.7765 19.9 25.7779 19.9C25.7793 19.9 25.7807 19.9 25.7821 19.9C25.7835 19.9 25.7849 19.9 25.7863 19.9C25.7877 19.9 25.7891 19.9 25.7904 19.9C25.7918 19.9 25.7932 19.9 25.7946 19.9C25.7959 19.9 25.7973 19.9 25.7987 19.9C25.8 19.9 25.8014 19.9 25.8027 19.9C25.8041 19.9 25.8054 19.9 25.8068 19.9C25.8081 19.9 25.8095 19.9 25.8108 19.9C25.8121 19.9 25.8135 19.9 25.8148 19.9C25.8161 19.9 25.8174 19.9 25.8188 19.9C25.8201 19.9 25.8214 19.9 25.8227 19.9C25.824 19.9 25.8253 19.9 25.8266 19.9C25.8279 19.9 25.8292 19.9 25.8305 19.9C25.8318 19.9 25.8331 19.9 25.8344 19.9C25.8357 19.9 25.837 19.9 25.8382 19.9C25.8395 19.9 25.8408 19.9 25.8421 19.9C25.8433 19.9 25.8446 19.9 25.8459 19.9C25.8471 19.9 25.8484 19.9 25.8496 19.9C25.8509 19.9 25.8521 19.9 25.8534 19.9C25.8546 19.9 25.8558 19.9 25.8571 19.9C25.8583 19.9 25.8595 19.9 25.8608 19.9C25.862 19.9 25.8632 19.9 25.8644 19.9C25.8656 19.9 25.8668 19.9 25.8681 19.9C25.8693 19.9 25.8705 19.9 25.8717 19.9C25.8729 19.9 25.8741 19.9 25.8752 19.9C25.8764 19.9 25.8776 19.9 25.8788 19.9C25.88 19.9 25.8812 19.9 25.8823 19.9C25.8835 19.9 25.8847 19.9 25.8858 19.9C25.887 19.9 25.8881 19.9 25.8893 19.9C25.8904 19.9 25.8916 19.9 25.8927 19.9C25.8939 19.9 25.895 19.9 25.8962 19.9C25.8973 19.9 25.8984 19.9 25.8995 19.9C25.9007 19.9 25.9018 19.9 25.9029 19.9C25.904 19.9 25.9051 19.9 25.9062 19.9C25.9073 19.9 25.9084 19.9 25.9095 19.9C25.9106 19.9 25.9117 19.9 25.9128 19.9C25.9139 19.9 25.915 19.9 25.9161 19.9C25.9172 19.9 25.9182 19.9 25.9193 19.9C25.9204 19.9 25.9214 19.9 25.9225 19.9C25.9235 19.9 25.9246 19.9 25.9257 19.9C25.9267 19.9 25.9278 19.9 25.9288 19.9C25.9298 19.9 25.9309 19.9 25.9319 19.9C25.9329 19.9 25.934 19.9 25.935 19.9C25.936 19.9 25.937 19.9 25.938 19.9C25.939 19.9 25.94 19.9 25.9411 19.9C25.9421 19.9 25.943 19.9 25.944 19.9C25.945 19.9 25.946 19.9 25.947 19.9C25.948 19.9 25.949 19.9 25.9499 19.9C25.9509 19.9 25.9519 19.9 25.9528 19.9C25.9538 19.9 25.9548 19.9 25.9557 19.9C25.9567 19.9 25.9576 19.9 25.9586 19.9C25.9595 19.9 25.9604 19.9 25.9614 19.9C25.9623 19.9 25.9632 19.9 25.9642 19.9C25.9651 19.9 25.966 19.9 25.9669 19.9C25.9678 19.9 25.9687 19.9 25.9697 19.9C25.9706 19.9 25.9715 19.9 25.9723 19.9C25.9732 19.9 25.9741 19.9 25.975 19.9C25.9759 19.9 25.9768 19.9 25.9777 19.9C25.9785 19.9 25.9794 19.9 25.9803 19.9C25.9811 19.9 25.982 19.9 25.9828 19.9C25.9837 19.9 25.9845 19.9 25.9854 19.9C25.9862 19.9 25.9871 19.9 25.9879 19.9C25.9887 19.9 25.9896 19.9 25.9904 19.9C25.9912 19.9 25.992 19.9 25.9928 19.9C25.9936 19.9 25.9944 19.9 25.9953 19.9C25.9961 19.9 25.9968 19.9 25.9976 19.9C25.9984 19.9 25.9992 19.9 26 19.9V19.1ZM22.7172 19.2172C22.4631 19.4712 21.584 20.3754 20.7675 21.2674C20.3596 21.7129 19.9629 22.1602 19.6665 22.5239C19.519 22.7048 19.3908 22.8719 19.2975 23.0113C19.2512 23.0805 19.2081 23.1508 19.1751 23.2177C19.1497 23.2693 19.1 23.3762 19.1 23.5H19.9C19.9 23.5738 19.8738 23.6096 19.8926 23.5716C19.9037 23.5489 19.9256 23.5111 19.9623 23.4563C20.035 23.3476 20.1451 23.203 20.2866 23.0293C20.5684 22.6835 20.9529 22.2496 21.3575 21.8076C22.166 20.9246 23.0369 20.0288 23.2828 19.7828L22.7172 19.2172ZM19.1 23.5C19.1 23.7421 19.2129 23.9793 19.3442 24.1669C19.4826 24.3646 19.675 24.5557 19.9031 24.7078C20.3593 25.0119 21.0141 25.1902 21.6789 24.8578L21.3211 24.1422C20.9859 24.3098 20.6407 24.2381 20.3469 24.0422C20.2 23.9443 20.0799 23.8229 19.9996 23.7081C19.9596 23.6511 19.9329 23.6005 19.917 23.5602C19.9004 23.5181 19.9 23.4986 19.9 23.5H19.1ZM21.6789 24.8578C22.149 24.6227 22.6914 24.1156 23.1539 23.6241C23.6281 23.1199 24.0626 22.5832 24.32 22.24L23.68 21.76C23.4374 22.0834 23.0219 22.5967 22.5711 23.0759C22.1086 23.5677 21.651 23.9773 21.3211 24.1422L21.6789 24.8578ZM23.7781 22.3328L31.2781 27.3328L31.7219 26.6672L24.2219 21.6672L23.7781 22.3328ZM31.2781 27.3328C31.4924 27.4757 31.7525 27.7241 31.8732 27.9902C31.9306 28.1168 31.9498 28.2322 31.9341 28.3378C31.9188 28.44 31.8657 28.5686 31.7172 28.7172L32.2828 29.2828C32.5343 29.0314 32.6812 28.7516 32.7253 28.4559C32.7689 28.1636 32.7069 27.8915 32.6018 27.6598C32.3975 27.2093 32.0076 26.8577 31.7219 26.6672L31.2781 27.3328ZM31.7172 28.7172C31.5791 28.8552 31.4294 28.8834 31.2512 28.8563C31.0527 28.826 30.8564 28.731 30.6789 28.6422L30.3211 29.3578C30.486 29.4402 30.7896 29.5952 31.1306 29.6471C31.4917 29.7022 31.9209 29.6448 32.2828 29.2828L31.7172 28.7172ZM30.6789 28.6422C30.5848 28.5952 30.3905 28.4679 30.1117 28.2701C29.842 28.0788 29.5173 27.8392 29.1738 27.584C28.4928 27.0783 27.7328 26.5078 27.2219 26.1672L26.7781 26.8328C27.2672 27.1589 28.0042 27.7119 28.6968 28.2263C29.04 28.4812 29.3712 28.7257 29.6489 28.9227C29.9175 29.1132 30.1623 29.2783 30.3211 29.3578L30.6789 28.6422ZM30.5085 29.4426C30.7228 29.5855 30.9829 29.8338 31.1036 30.1C31.161 30.2266 31.1802 30.342 31.1645 30.4476C31.1492 30.5498 31.0961 30.6784 30.9475 30.8269L31.5132 31.3926C31.7647 31.1412 31.9116 30.8614 31.9557 30.5657C31.9993 30.2734 31.9373 30.0013 31.8322 29.7696C31.6279 29.3191 31.238 28.9674 30.9523 28.777L30.5085 29.4426ZM30.9475 30.8269C30.8095 30.965 30.6598 30.9932 30.4815 30.966C30.2831 30.9358 30.0868 30.8408 29.9093 30.752L29.5515 31.4676C29.7164 31.55 30.02 31.7049 30.361 31.7569C30.7221 31.8119 31.1512 31.7546 31.5132 31.3926L30.9475 30.8269ZM29.9093 30.752C29.8171 30.7059 29.5984 30.5602 29.2761 30.3291C28.9653 30.1063 28.586 29.8247 28.1883 29.528C27.3997 28.9395 26.5306 28.2852 26.0192 27.9443L25.5754 28.6099C26.064 28.9356 26.9085 29.5711 27.7099 30.1691C28.1072 30.4656 28.4921 30.7514 28.81 30.9793C29.1162 31.1989 29.3907 31.3871 29.5515 31.4676L29.9093 30.752ZM28.6021 30.8328C28.8331 30.9868 29.142 31.2455 29.3029 31.5247C29.3804 31.6592 29.4095 31.774 29.4031 31.8704C29.3972 31.9587 29.3592 32.0751 29.2172 32.2172L29.7828 32.7828C30.0408 32.5249 30.1808 32.233 30.2013 31.9233C30.2213 31.6219 30.1251 31.3492 29.9961 31.1253C29.744 30.6879 29.3148 30.3465 29.0459 30.1672L28.6021 30.8328ZM29.2172 32.2172C29.0791 32.3552 28.9294 32.3834 28.7512 32.3563C28.5527 32.326 28.3564 32.231 28.1789 32.1422L27.8211 32.8578C27.986 32.9402 28.2896 33.0952 28.6306 33.1471C28.9917 33.2022 29.4209 33.1448 29.7828 32.7828L29.2172 32.2172ZM28.1789 32.1422C28.092 32.0988 27.8732 31.9472 27.5425 31.6986C27.2255 31.4602 26.8381 31.158 26.4317 30.8401C25.6278 30.2111 24.7381 29.5113 24.2219 29.1672L23.7781 29.8328C24.2619 30.1554 25.1193 30.8291 25.9388 31.4702C26.3441 31.7873 26.7376 32.0943 27.0618 32.338C27.3723 32.5714 27.655 32.7747 27.8211 32.8578L28.1789 32.1422ZM25.5754 31.1844C25.8065 31.3385 26.1153 31.5971 26.2762 31.8764C26.3537 32.0108 26.3828 32.1256 26.3764 32.2221C26.3705 32.3103 26.3325 32.4267 26.1905 32.5688L26.7562 33.1345C27.0141 32.8765 27.1541 32.5846 27.1746 32.275C27.1946 31.9735 27.0984 31.7008 26.9694 31.4769C26.7173 31.0395 26.2881 30.6981 26.0192 30.5188L25.5754 31.1844ZM26.1905 32.5688C26.0455 32.7138 25.8794 32.75 25.7002 32.7278C25.5074 32.7039 25.3212 32.6118 25.2119 32.5305L24.7348 33.1727C24.9327 33.3197 25.2465 33.4777 25.6019 33.5217C25.9709 33.5674 26.4012 33.4895 26.7562 33.1345L26.1905 32.5688ZM25.1994 32.5216L23.226 31.17L22.774 31.83L24.7473 33.1816L25.1994 32.5216Z" fill="#9AC31C"/>
<rect x="100" width="50" height="50" rx="25" fill="white"/>
<path d="M129.713 35.2503H119.245C118.633 35.1784 117.41 34.279 117.41 31.2573C117.41 28.2355 117.41 20.7889 117.41 17.4434H130.577V33.4157C130.756 34.0272 131.461 35.2503 132.843 35.2503C134.224 35.2503 134.857 34.0272 135.001 33.4157V26.2929H133.49" stroke="#9AC31C"/>
<path d="M131.332 22.4082H132.843V32.8765" stroke="#9AC31C"/>
<path d="M119.57 26.4004H128.528" stroke="#9AC31C"/>
<path d="M119.57 28.4512H128.528" stroke="#9AC31C"/>
<path d="M119.57 30.3945H128.528" stroke="#9AC31C"/>
<rect x="200" width="50" height="50" rx="25" fill="white"/>
<path d="M220.78 21.2804V15.5H228.22V21.2804C228.22 21.5565 228.443 21.7804 228.72 21.7804H234.5V29.2196H228.72C228.443 29.2196 228.22 29.4435 228.22 29.7196V35.5H220.78V29.7196C220.78 29.4435 220.556 29.2196 220.28 29.2196H214.5V21.7804H220.28C220.556 21.7804 220.78 21.5565 220.78 21.2804Z" stroke="#9AC31C" stroke-linejoin="round"/>
<rect x="300" width="50" height="50" rx="25" fill="white"/>
<path d="M323.738 20.8593C323.738 22.1058 322.728 23.1162 321.481 23.1162C320.235 23.1162 319.224 22.1058 319.224 20.8593C319.224 20.558 319.315 20.1205 319.498 19.6177C319.678 19.1211 319.939 18.5867 320.257 18.097C320.575 17.6056 320.942 17.1727 321.329 16.8666C321.717 16.5596 322.099 16.4 322.46 16.4C322.717 16.4 322.92 16.5193 323.101 16.7806C323.292 17.0563 323.436 17.4645 323.536 17.9591C323.737 18.9445 323.738 20.1187 323.738 20.8593Z" stroke="#9AC31C" stroke-width="0.8"/>
<path d="M319.701 24.9796C320.137 25.9732 319.685 27.1319 318.691 27.5677C317.698 28.0034 316.539 27.5512 316.103 26.5576C315.998 26.3186 315.917 25.9352 315.886 25.4627C315.856 24.9966 315.877 24.4712 315.96 23.962C316.044 23.4508 316.187 22.9718 316.39 22.5895C316.594 22.2059 316.842 21.9482 317.124 21.8246C317.317 21.7398 317.51 21.7601 317.742 21.9028C317.988 22.0547 318.247 22.3304 318.505 22.6957C319.017 23.4229 319.436 24.3753 319.701 24.9796Z" stroke="#9AC31C" stroke-width="0.8"/>
<path d="M329.998 24.9796C329.562 25.9732 330.014 27.1319 331.008 27.5677C332.002 28.0034 333.16 27.5512 333.596 26.5576C333.701 26.3186 333.783 25.9352 333.813 25.4627C333.843 24.9966 333.822 24.4712 333.739 23.962C333.655 23.4508 333.512 22.9718 333.309 22.5895C333.105 22.2059 332.857 21.9482 332.575 21.8246C332.382 21.7398 332.189 21.7601 331.958 21.9028C331.711 22.0547 331.452 22.3304 331.195 22.6957C330.682 23.4229 330.263 24.3753 329.998 24.9796Z" stroke="#9AC31C" stroke-width="0.8"/>
<path d="M325.938 20.8593C325.938 22.1058 326.948 23.1162 328.195 23.1162C329.441 23.1162 330.452 22.1058 330.452 20.8593C330.452 20.558 330.361 20.1205 330.178 19.6177C329.997 19.1211 329.737 18.5867 329.419 18.097C329.101 17.6056 328.734 17.1727 328.347 16.8666C327.959 16.5596 327.576 16.4 327.216 16.4C326.959 16.4 326.755 16.5193 326.575 16.7806C326.384 17.0563 326.24 17.4645 326.139 17.9591C325.939 18.9445 325.938 20.1187 325.938 20.8593Z" stroke="#9AC31C" stroke-width="0.8"/>
<mask id="path-26-inside-1_531_18726" fill="white">
<path fill-rule="evenodd" clip-rule="evenodd" d="M328.622 26.8461C328.037 25.1026 326.562 23.8652 324.835 23.8652C323.161 23.8652 321.762 25.1072 321.163 26.8073C319.04 27.6305 317.751 29.5553 318.228 31.3376C318.75 33.2852 321.303 34.2283 323.783 33.5637C324.161 33.4623 324.516 33.3294 324.844 33.1701C325.171 33.3294 325.526 33.4623 325.904 33.5637C328.385 34.2283 330.937 33.2852 331.459 31.3376C331.929 29.5827 330.687 27.6897 328.622 26.8461Z"/>
</mask>
<path d="M328.622 26.8461L327.863 27.1005L327.98 27.4481L328.319 27.5867L328.622 26.8461ZM321.163 26.8073L321.452 27.5532L321.795 27.4202L321.918 27.0732L321.163 26.8073ZM318.228 31.3376L319.001 31.1306L318.228 31.3376ZM323.783 33.5637L323.576 32.7909L323.576 32.7909L323.783 33.5637ZM324.844 33.1701L325.193 32.4506L324.844 32.2805L324.494 32.4506L324.844 33.1701ZM325.904 33.5637L326.111 32.7909L326.111 32.7909L325.904 33.5637ZM331.459 31.3376L332.232 31.5447L332.232 31.5447L331.459 31.3376ZM329.38 26.5916C328.708 24.5896 326.972 23.0652 324.835 23.0652V24.6652C326.152 24.6652 327.365 25.6155 327.863 27.1005L329.38 26.5916ZM324.835 23.0652C322.73 23.0652 321.087 24.617 320.409 26.5415L321.918 27.0732C322.438 25.5974 323.591 24.6652 324.835 24.6652V23.0652ZM320.874 26.0614C318.525 26.9719 316.834 29.2253 317.455 31.5447L319.001 31.1306C318.667 29.8852 319.554 28.289 321.452 27.5532L320.874 26.0614ZM317.455 31.5447C317.798 32.8239 318.794 33.7117 319.98 34.1753C321.165 34.6387 322.599 34.7091 323.99 34.3364L323.576 32.7909C322.486 33.0829 321.404 33.014 320.562 32.6851C319.722 32.3565 319.18 31.7989 319.001 31.1306L317.455 31.5447ZM323.99 34.3364C324.416 34.2222 324.819 34.0717 325.193 33.8896L324.494 32.4506C324.213 32.5872 323.906 32.7024 323.576 32.7909L323.99 34.3364ZM324.494 33.8896C324.868 34.0717 325.271 34.2222 325.697 34.3364L326.111 32.7909C325.781 32.7024 325.474 32.5872 325.193 32.4506L324.494 33.8896ZM325.697 34.3364C327.088 34.7091 328.522 34.6387 329.707 34.1753C330.894 33.7117 331.889 32.8239 332.232 31.5447L330.686 31.1306C330.507 31.7989 329.966 32.3565 329.125 32.6851C328.284 33.014 327.201 33.0829 326.111 32.7909L325.697 34.3364ZM332.232 31.5447C332.844 29.2615 331.212 27.0399 328.924 26.1055L328.319 27.5867C330.162 28.3394 331.015 29.9039 330.686 31.1306L332.232 31.5447Z" fill="#9AC31C" mask="url(#path-26-inside-1_531_18726)"/>
<rect x="400" width="50" height="50" rx="25" fill="white"/>
<path d="M425.082 29.79C425.082 29.9207 425.017 29.986 424.886 29.986H424.256C424.125 29.986 424.06 29.9207 424.06 29.79V20.508C423.369 22.2253 422.749 23.7607 422.198 25.114C421.965 25.6927 421.736 26.262 421.512 26.822C421.288 27.3727 421.087 27.8673 420.91 28.306C420.733 28.7353 420.588 29.0853 420.476 29.356C420.364 29.6267 420.308 29.7667 420.308 29.776C420.261 29.8693 420.191 29.916 420.098 29.916H419.468C419.403 29.916 419.356 29.9067 419.328 29.888C419.3 29.86 419.277 29.8227 419.258 29.776L415.394 20.508V29.79C415.394 29.9207 415.329 29.986 415.198 29.986H414.568C414.437 29.986 414.372 29.9207 414.372 29.79V19.99C414.372 19.794 414.386 19.682 414.414 19.654C414.451 19.6167 414.568 19.598 414.764 19.598H415.814C415.889 19.598 415.94 19.6073 415.968 19.626C416.005 19.6447 416.038 19.6913 416.066 19.766L419.79 28.824L423.402 19.752C423.439 19.6493 423.514 19.598 423.626 19.598H424.69C424.886 19.598 424.998 19.6167 425.026 19.654C425.063 19.682 425.082 19.794 425.082 19.99V29.79ZM431.545 30.406C431.545 30.5367 431.479 30.602 431.349 30.602H430.705C430.574 30.602 430.509 30.5367 430.509 30.406V26.22C429.883 25.24 429.258 24.2693 428.633 23.308C428.017 22.3373 427.396 21.3713 426.771 20.41C426.752 20.3633 426.752 20.3213 426.771 20.284C426.789 20.2373 426.827 20.214 426.883 20.214H427.681C427.793 20.214 427.886 20.2793 427.961 20.41L431.013 25.324C431.573 24.4747 432.1 23.658 432.595 22.874C433.089 22.0807 433.617 21.2593 434.177 20.41C434.242 20.2793 434.335 20.214 434.457 20.214H435.157C435.213 20.214 435.25 20.2373 435.269 20.284C435.297 20.3213 435.297 20.3633 435.269 20.41L431.545 26.22V30.406Z" fill="#9AC31C"/>
</svg>
